# xmcd
#
# Track frame offsets: 
#        182
#        13950
#        29512
#        43125
#        57565
#        73225
#        89890
#        105212
#        118622
#        135000
#
# Disc length: 2019 seconds
#
# Revision: 0
# Processed by: cddbd v1.5.1PL2 Copyright (c) Steve Scherf et al.
# Submitted via: ExactAudioCopy v0.95b3
#
DISCID=8d07e10a
DTITLE=CORO HDAD.DEL PELOTAZO - SEVILLANAS DEL CONDE MARIO
DYEAR=1900
DGENRE=
TTITLE0=1. SEVILLANAS DEL CONDE MARIO
TTITLE1=2. VAYA PELOTAZO QUE HA PEGAO USTED
TTITLE2=3. YO TORERO Y ELLA ARTISTA
TTITLE3=4. LA GORDA
TTITLE4=5. LA CAMA TURCA
TTITLE5=6. NO TE PENA LORENA
TTITLE6=7. LA COMPUTADORA
TTITLE7=8. MARIA DEL CHALET
TTITLE8=9. AGUSTITO ME QUEDE
TTITLE9=10. MI AMIGO EL TIESO
EXTD=
EXTT0=
EXTT1=
EXTT2=
EXTT3=
EXTT4=
EXTT5=
EXTT6=
EXTT7=
EXTT8=
EXTT9=
PLAYORDER=
